<?xml version="1.0" encoding="utf-8"?>
<!-- Generator: Adobe Illustrator 26.3.1, SVG Export Plug-In . SVG Version: 6.00 Build 0)  -->
<svg version="1.1" id="katman_1" xmlns="http://www.w3.org/2000/svg" xmlns:xlink="http://www.w3.org/1999/xlink" x="0px" y="0px"
	 viewBox="0 0 262.6 100.7" style="enable-background:new 0 0 262.6 100.7;" xml:space="preserve">
<style type="text/css">
	.st0{fill:#69AAC0;}
	.st1{fill:#39B3A3;}
	.st2{fill:#5DACB9;}
	.st3{fill:#51AFB2;}
	.st4{fill:#45B1AA;}
</style>
<g id="_x23_69aac0ff">
	<path class="st0" d="M1.8,0.8C6.2,0.7,10.6,1.5,15,1.3c1.6-0.3,3.4,0.8,3.2,2.6c0.1,30.7,0,61.4,0,92.1c0.2,1.5-0.4,3.8-2.4,3.5
		c-4.4,0-8.8,0.3-13.2-0.2c-1.4-1.1-1-2.9-1.1-4.4c0-26.3,0-52.7,0-79C1.6,10.9,0.9,5.8,1.8,0.8z"/>
</g>
<g id="_x23_39b3a3ff">
	<path class="st1" d="M246.3,1.3c4.4-0.2,8.9-0.3,13.4,0.1c1.8,0,1.8,2.2,1.8,3.5c-0.1,30,0,60,0,90c-0.2,1.5,0.4,3.8-1.4,4.6
		c-5,0.3-9.9,0.3-14.9-0.1c-0.9-13.5-0.1-27.1-0.4-40.7c-5.2,0-10.5,0-15.7,0c-0.1,13.5,0.2,27-0.1,40.5c-3.6,0.7-7.2,0.5-10.9,0.5
		c-1.9-0.1-4,0.4-5.5-1.1c-0.4-2.5-0.2-5.1-0.2-7.6c0-29.6-0.1-59.3,0-88.9c5.3-1.4,11.1-0.9,16.5-0.3c0.4,13.5,0.1,27,0.2,40.5
		c5.2-0.1,10.5,0,15.7,0c0.2-13.4-0.4-26.9,0.3-40.2C245.3,1.8,246,1.5,246.3,1.3z"/>
</g>
<g id="_x23_5dacb9ff">
	<path class="st2" d="M30.6,17.9c0.2-1.4-0.5-4,1.6-4.2c3.8-0.1,7.9-0.7,11.5,0.5C52.1,29.9,59.4,46,67.4,61.9
		c0.1-15,0.1-29.9,0.1-44.9c0-1.3,0.1-3.1,1.8-3.3c4.5-0.1,9.2-0.7,13.6,0.6c0.1,28.3,0.2,56.5-0.1,84.8c-3.9,0.6-7.9,0.6-11.8,0.3
		c-1.5-0.2-1.8-1.9-2.5-2.9C61.1,81.4,53.4,66.3,46,51.2c-0.2,16,0.1,32-0.1,47.9c-4.9,0.9-9.9,0.6-14.9,0.2
		c-0.6-4.1-0.3-8.3-0.4-12.4C30.6,63.9,30.6,40.9,30.6,17.9z"/>
</g>
<g id="_x23_51afb2ff">
	<path class="st3" d="M92.9,15.7c-0.1-1.6,1.6-2.4,3-2.1c13.4,0,26.7,0.1,40.1,0c2-0.1,3.9,0.2,5.8,0.6c0.2,4.6,0.2,9.2,0.1,13.8
		c0.3,1.7-1.6,1.7-2.8,1.8c-4.4,0.2-8.9,0-13.3,0.1c0.1,21.7-0.1,43.5,0,65.2c-0.1,1.6,0.5,4-1.7,4.5c-4.7,0.2-9.5,0.3-14.2-0.1
		c-1.1-1.1-0.6-2.9-0.8-4.4c0.1-21.7,0.1-43.5,0-65.2c-5.3,0-10.5,0.1-15.8-0.2C92.6,25.1,92.9,20.4,92.9,15.7z"/>
</g>
<g id="_x23_45b1aaff">
	<path class="st4" d="M157.5,16.4c5.8-3.7,13-2.6,19.6-2.8c6.5,0,14.4-0.2,19,5.3c5.2,6.2,3.6,14.6,3.9,22c-0.2,1.9,0.7,5-1.9,5.6
		c-4.2,0.1-8.7,0.6-12.8-0.4c-2.5-5,1.6-12.2-3.2-16.3c-4.2-0.1-8.5-0.3-12.8,0.1c-0.7,0.8-1.5,1.5-2.2,2.3c-0.2,16.5-0.4,33,0,49.5
		c0.8,0.7,1.6,1.5,2.4,2.2c4.6-0.3,10,1.6,13.9-1.3c2.3-4.4,0.5-9.5,1.2-14.2c0.2-1.8,2.2-1.4,3.4-1.5c3.9,0,7.8-0.2,11.7,0.4
		c0.1,6.8,0.7,13.7-0.4,20.4c-0.9,6.9-7.8,11.7-14.4,12c-6.3,0.3-12.6,0.3-18.8,0c-5.3-0.2-10.5-3-13.2-7.6
		c-1.8-3.3-2.1-7.2-2.1-10.9c0.1-16.7,0-33.3,0-50C150.7,25.5,152.5,19.4,157.5,16.4z"/>
</g>
</svg>
